Format : MPEG-4
Format profile : Base Media / Version 2
Codec ID : mp42
File size : 379 MiB
Duration : 1h 32mn
Overall bit rate : 574 Kbps
Encoded date : UTC 2010-10-21 14:05:08
Tagged date : UTC 2010-10-21 14:05:41
Writing application : mp4creator 1.6.1d

Video
ID : 1
Format : AVC
Format/Info : Advanced Video Codec
Format profile : Baseline@L1.3
Format settings, CABAC : No
Format settings, ReFrames : 1 frame
Codec ID : avc1
Codec ID/Info : Advanced Video Coding
Duration : 1h 32mn
Bit rate mode : Variable
Bit rate : 510 Kbps
Width : 480 pixels
Height : 272 pixels
Display aspect ratio : 16:9
Original display aspect ratio : 16:9
Frame rate mode : Constant
Frame rate : 24.000 fps
Resolution : 24 bits
Colorimetry : 4:2:0
Scan type : Progressive
Bits/(Pixel*Frame) : 0.163
Stream size : 336 MiB (89%)
Encoded date : UTC 2010-10-21 14:05:08
Tagged date : UTC 2010-10-21 14:05:38

Audio
ID : 2
Format : AAC
Format/Info : Advanced Audio Codec
Format version : Version 4
Format profile : LC
Format settings, SBR : Yes
Format settings, PS : No
Codec ID : 40
Duration : 1h 32mn
Bit rate mode : Variable
Bit rate : 62.9 Kbps
Maximum bit rate : 139 Kbps
Channel(s) : 2 channels
Channel positions : L R
Sampling rate : 48.0 KHz
Resolution : 16 bits
Stream size : 41.5 MiB (11%)
Encoded date : UTC 2010-10-21 14:05:39
Tagged date : UTC 2010-10-21 14:05:41

Samuel Axel (Steven Seagal) is an Interpol Agent assigned to a task force in Eastern Europe. His target is those that traffic guns and dope throughout the Balkans. When an investigation puts him on the trail of a Russian gun dealer he learns how deadly life in Eastern Europe can truly be. Axel and his team are witness to a bloody street war between a Gypsy gang and the Russians. And when the investigation turns fatal for one of his team members, Axel becomes consumed with the need for vengeance.
 
http://www.imdb.com/title/tt1528718/

 
http://img526.imageshack.us/img526/7530/bornraisehellh264vicemp.jpg 
http://img340.imageshack.us/img340/7530/bornraisehellh264vicemp.jpg 
http://img101.imageshack.us/img101/7530/bornraisehellh264vicemp.jpg 
http://img155.imageshack.us/img155/7530/bornraisehellh264vicemp.jpg
 
http://img175.imageshack.us/img175/7530/bornraisehellh264vicemp.jpg